#!OML:ASF E:\Mandelcareful walks\Project 1\Capture day 1\Session 1\Subject1.ASF
:FULLY-SPECIFIED
:DEGREES
1053
root 31.4907 15.4862 4.27839 837.926 81.0609 837.307
lowerback 27.5147 -0.57575 2.78199
upperback 9.78355 0.948248 0.0747823
thorax -4.25928 0.913562 -1.83072
lowerneck -26.2008 6.5683 4.23311
upperneck 31.2038 12.5917 -10.527
head 16.7796 4.37731 -2.46103
rclavicle -2.3059e-014 6.36111e-015
rhumerus -18.9575 -3.37675 -73.3033
rradius 35.9913
rwrist -19.0445
rhand -14.1011 -27.856
rfingers 7.12502
rthumb 12.0316 -57.4901
lclavicle -2.3059e-014 6.36111e-015
lhumerus -30.7481 -4.65601 88.3045
lradius 29.8056
lwrist 15.4054
lhand -21.4871 -12.8162
lfingers 7.12502
lthumb 4.904 17.1071
rfemur -22.5427 -7.97096 16.2122
rtibia 58.6034
rfoot -32.6744 -15.8774
rtoes 10.62
lfemur -41.535 8.60638 -18.7223
ltibia 36.9375
lfoot -3.67555 6.03545
ltoes -2.3997
1054
root 31.5817 15.4779 4.2552 836.437 81.7048 836.174
lowerback 27.0656 -0.517657 3.12118
upperback 9.90889 1.09477 0.179029
thorax -3.89527 0.995725 -1.94311
lowerneck -25.9771 6.65949 4.44297
upperneck 31.1633 12.8171 -10.9302
head 16.7978 4.45512 -2.62332
rclavicle 1.98785e-014 -2.70347e-014
rhumerus -18.7006 -3.25189 -73.4597
rradius 36.0303
rwrist -19.1501
rhand -14.2459 -27.7407
rfingers 7.12502
rthumb 11.892 -57.383
lclavicle 1.98785e-014 -2.70347e-014
lhumerus -30.7474 -4.54155 88.3686
lradius 29.837
lwrist 15.1936
lhand -21.2059 -12.8659
lfingers 7.12502
lthumb 5.17555 17.0509
rfemur -21.7132 -7.70475 16.6511
rtibia 58.3606
rfoot -32.7825 -16.0514
rtoes 9.26662
lfemur -40.4614 8.04118 -17.4286
ltibia 34.337
lfoot -2.19843 5.47211
ltoes -3.5158
1055
root 31.6765 15.466 4.22449 833.401 82.2247 833.432
lowerback 26.7932 -0.400762 3.17712
upperback 9.87967 1.2375 0.288967
thorax -3.7921 1.05859 -1.89088
lowerneck -25.7028 6.75404 4.59858
upperneck 31.289 13.1077 -11.3044
head 16.891 4.55791 -2.75415
rclavicle 2.38542e-015 3.18055e-015
rhumerus -18.6445 -2.78395 -73.5622
rradius 36.0642
rwrist -19.4959
rhand -14.5397 -27.5915
rfingers 7.12502
rthumb 11.6086 -57.25
lclavicle 2.38542e-015 3.18055e-015
lhumerus -30.9353 -4.16195 88.4537
lradius 29.8069
lwrist 14.7368
lhand -21.0418 -13.2016
lfingers 7.12502
lthumb 5.334 16.7113
rfemur -20.9169 -7.35072 16.844
rtibia 58.1615
rfoot -32.9695 -16.0141
rtoes 8.60524
lfemur -39.6194 7.54223 -16.316
ltibia 32.1341
lfoot -0.312237 5.6908
ltoes -4.38344
1056
root 31.768 15.4535 4.1938 829.824 82.477 830.111
lowerback 26.3703 -0.286592 3.14379
upperback 10.0239 1.3543 0.263567
thorax -3.42463 1.12432 -1.92
lowerneck -25.743 6.75143 4.44402
upperneck 31.3932 13.1858 -11.2655
head 16.9461 4.57296 -2.69406
rclavicle -3.4191e-014 -3.49861e-014
rhumerus -18.2926 -2.65285 -73.7417
rradius 36.0156
rwrist -19.8074
rhand -14.6614 -27.4657
rfingers 7.12502
rthumb 11.4913 -57.1308
lclavicle -3.4191e-014 -3.49861e-014
lhumerus -30.6614 -4.15468 88.4978
lradius 29.7023
lwrist 14.509
lhand -20.7921 -13.0449
lfingers 7.12502
lthumb 5.5751 16.8617
rfemur -20.1654 -7.02655 16.7701
rtibia 58.0057
rfoot -33.203 -15.8801
rtoes 8.77522
lfemur -38.8129 7.38589 -15.7541
ltibia 30.3137
lfoot 2.08619 6.5317
ltoes -5.69241
1057
root 31.8531 15.4414 4.15896 825.245 82.7611 825.551
lowerback 25.9938 -0.0887537 3.0918
upperback 9.92695 1.55151 0.239877
thorax -3.34192 1.20845 -1.9632
lowerneck -25.4804 6.69139 4.19485
upperneck 31.4899 13.1476 -11.0388
head 16.8806 4.57044 -2.56784
rclavicle 2.38542e-015 -4.77083e-015
rhumerus -18.3387 -2.56742 -73.8979
rradius 36.1753
rwrist -19.8909
rhand -14.5931 -27.7246
rfingers 7.12502
rthumb 11.5572 -57.386
lclavicle 2.38542e-015 -4.77083e-015
lhumerus -30.6781 -4.22106 88.5415
lradius 29.7496
lwrist 14.4612
lhand -20.4088 -12.5499
lfingers 7.12502
lthumb 5.9451 17.3467
rfemur -19.7846 -6.6161 16.7218
rtibia 57.9015
rfoot -33.307 -15.8044
rtoes 8.7149
lfemur -38.3457 7.46404 -15.2645
ltibia 28.7747
lfoot 4.58685 8.34846
ltoes -5.65304
1058
root 31.9536 15.4344 4.11955 822.671 82.9664 823.185
lowerback 25.7393 -0.0534426 3.09679
upperback 9.87643 1.57256 0.228486
thorax -3.27388 1.21313 -1.97836
lowerneck -25.135 6.75001 4.28134
upperneck 31.5577 13.2779 -11.1388
head 16.8685 4.6389 -2.60435
rclavicle -4.05521e-014 -3.33958e-014
rhumerus -18.5266 -2.3561 -74.1011
rradius 36.5892
rwrist -20.0135
rhand -14.6774 -27.7761
rfingers 7.12502
rthumb 11.4758 -57.442
lclavicle -4.05521e-014 -3.33958e-014
lhumerus -30.6901 -4.19831 88.4909
lradius 29.8393
lwrist 14.4138
lhand -20.2023 -12.5085
lfingers 7.12502
lthumb 6.14448 17.3824
rfemur -19.0393 -6.49538 16.6395
rtibia 57.753
rfoot -33.5358 -15.7496
rtoes 8.51278
lfemur -37.6984 7.477 -14.8623
ltibia 27.5296
lfoot 6.59919 10.396
ltoes -5.44767
1059
root 32.0481 15.4222 4.07523 818.095 83.1924 818.787
lowerback 25.6982 0.037251 3.00691
upperback 9.81966 1.65149 0.20548
thorax -3.31435 1.24317 -1.97352
lowerneck -24.9547 6.899 4.48639
upperneck 31.682 13.578 -11.4089
head 16.9772 4.75863 -2.69477
rclavicle 1.35174e-014 2.38542e-014
rhumerus -18.595 -2.07502 -74.3071
rradius 36.9496
rwrist -20.1681
rhand -14.8073 -27.3779
rfingers 7.12502
rthumb 11.3506 -57.0507
lclavicle 1.35174e-014 2.38542e-014
lhumerus -30.6337 -4.1949 88.4418
lradius 29.9848
lwrist 14.4287
lhand -20.1248 -12.3813
lfingers 7.12502
lthumb 6.21935 17.5074
rfemur -18.4732 -6.14392 16.5499
rtibia 57.6456
rfoot -33.6825 -15.7463
rtoes 8.06865
lfemur -37.0866 7.56404 -14.3991
ltibia 26.5394
lfoot 8.0099 12.767
ltoes -4.26421
1060
root 32.1403 15.409 4.02851 813.336 83.3603 814.226
lowerback 25.5234 0.104876 2.92471
upperback 9.9545 1.71315 0.172957
thorax -3.07963 1.28038 -1.97038
lowerneck -24.9757 7.04016 4.48518
upperneck 31.7166 13.827 -11.463
head 17.0376 4.84961 -2.65988
rclavicle -7.95139e-015 -1.59028e-014
rhumerus -18.3346 -1.78925 -74.4985
rradius 37.2049
rwrist -20.3034
rhand -14.7669 -27.415
rfingers 7.12502
rthumb 11.3896 -57.0857
lclavicle -7.95139e-015 -1.59028e-014
lhumerus -30.311 -4.25928 88.3926
lradius 30.1038
lwrist 14.5609
lhand -20.2637 -12.6523
lfingers 7.12502
lthumb 6.08523 17.2403
rfemur -17.8798 -5.74067 16.4425
rtibia 57.5376
rfoot -33.8864 -15.758
rtoes 7.54136
lfemur -36.5334 7.62386 -13.9432
ltibia 25.8301
lfoot 9.03341 14.7863
ltoes -3.3812
1061
root 32.2286 15.3918 3.97888 809.397 83.5847 810.39
lowerback 25.2651 0.151684 2.89569
upperback 10.0808 1.75957 0.197396
thorax -2.81542 1.30944 -1.92911
lowerneck -24.8616 7.11672 4.47661
upperneck 31.646 13.9688 -11.5412
head 17.0012 4.90295 -2.65969
rclavicle 7.95139e-015 1.27222e-014
rhumerus -18.2389 -1.45607 -74.623
rradius 37.6318
rwrist -20.4991
rhand -14.7906 -27.6498
rfingers 7.12502
rthumb 11.3667 -57.3218
lclavicle 7.95139e-015 1.27222e-014
lhumerus -29.9682 -4.40346 88.3679
lradius 30.1759
lwrist 14.8543
lhand -20.6826 -13.6687
lfingers 7.12502
lthumb 5.68078 16.2351
rfemur -17.3911 -5.3574 16.4697
rtibia 57.4776
rfoot -34.0357 -15.8489
rtoes 7.23081
lfemur -36.2348 7.78382 -13.4978
ltibia 25.3954
lfoot 9.87338 15.7127
ltoes -5.03729
